<svg t="1649532473601" class="icon" viewBox="0 0 1024 1024" version="1.1" xmlns="http://www.w3.org/2000/svg" p-id="1290" width="200" height="200">
	<path d="M512 1024A512 512 0 1 1 512 0a512 512 0 0 1 0 1024z m0-64A448 448 0 1 0 512 64a448 448 0 0 0 0 896z m-22.656-438.656A31.872 31.872 0 0 1 512 512a128 128 0 1 0-128-128 32 32 0 0 1-64 0 192 192 0 1 1 224 189.376V672a32 32 0 1 1-64 0v-128c0-8.832 3.584-16.832 9.344-22.656zM512 896a64 64 0 1 1 0-128 64 64 0 0 1 0 128z" p-id="1291">
	</path>
</svg>
