<svg t="1649229832305" class="icon" viewBox="0 0 1024 1024" version="1.1" xmlns="http://www.w3.org/2000/svg" p-id="1290" width="200" height="200">
	<path d="M512 384.0004c-70.591956 0-127.99992 57.407964-127.99992 127.99992s57.407964 127.99992 127.99992 127.99992 127.99992-57.407964 127.99992-127.99992-57.407964-127.99992-127.99992-127.99992m0 319.9998c-105.855934 0-191.99988-86.143946-191.99988-191.99988s86.143946-191.99988 191.99988-191.99988 191.99988 86.143946 191.99988 191.99988-86.143946 191.99988-191.99988 191.99988m-260.095837 100.671937c7.167996 0 14.271991 2.431998 20.031987 7.103996a385.535759 385.535759 0 0 0 100.671937 58.175963 31.93598 31.93598 0 0 1 19.391988 22.015987l10.879993 43.775972A32.12798 32.12798 0 0 0 433.920049 960.00004h156.031902c14.719991 0 27.455983-9.983994 31.103981-24.255985l10.879993-43.775972a31.93598 31.93598 0 0 1 19.391988-22.015987 385.535759 385.535759 0 0 0 100.671937-58.175963 31.61598 31.61598 0 0 1 28.799982-5.823997l43.519973 12.415993a32.19198 32.19198 0 0 0 36.607977-14.783991l78.015951-135.167916a31.99998 31.99998 0 0 0-5.503996-39.039975l-32.51198-31.423981a31.80798 31.80798 0 0 1-9.343994-27.775982 392.319755 392.319755 0 0 0 0-116.351928 31.80798 31.80798 0 0 1 9.343994-27.775982l32.51198-31.423981a31.99998 31.99998 0 0 0 5.503996-39.039975l-78.079951-135.167916a31.99998 31.99998 0 0 0-36.479977-14.783991l-43.519973 12.479993a32.31998 32.31998 0 0 1-28.863982-5.823997 382.591761 382.591761 0 0 0-100.607937-58.175963 32.25598 32.25598 0 0 1-19.455988-22.079987l-10.943993-43.839972A31.99998 31.99998 0 0 0 590.015951 64.0006H433.920049a32.12798 32.12798 0 0 0-31.103981 24.255985l-10.879993 43.775972a32.25598 32.25598 0 0 1-19.455988 22.079987 382.591761 382.591761 0 0 0-100.607937 58.175963 31.87198 31.87198 0 0 1-28.863982 5.823997l-43.519973-12.415993a31.99998 31.99998 0 0 0-36.543977 14.719991l-78.079951 135.167916a31.99998 31.99998 0 0 0 5.567996 39.039975l32.51198 31.423981a31.80798 31.80798 0 0 1 9.343994 27.775982 392.319755 392.319755 0 0 0 0 116.351928 31.80798 31.80798 0 0 1-9.343994 27.775982l-32.51198 31.423981a31.99998 31.99998 0 0 0-5.503996 39.039975l78.015951 135.167916a31.99998 31.99998 0 0 0 36.479977 14.783991l43.519973-12.415993a29.823981 29.823981 0 0 1 8.895995-1.279999M590.015951 1024H433.920049c-44.159972 0-82.431948-29.951981-93.119942-72.767955l-7.039996-28.031982a448.76772 448.76772 0 0 1-88.703944-51.327968l-27.967983 7.999995a96.12794 96.12794 0 0 1-109.567931-44.287972L29.440302 700.416202a95.87194 95.87194 0 0 1 16.447989-116.991927l20.927987-20.223987a455.935715 455.935715 0 0 1 0-102.399936l-20.927987-20.223987a95.87194 95.87194 0 0 1-16.383989-116.991927L107.520253 188.416522a95.80794 95.80794 0 0 1 109.567931-44.287972l27.967983 7.999995c27.519983-20.479987 57.279964-37.631976 88.703944-51.263968l6.975996-28.159982A95.93594 95.93594 0 0 1 433.920049 0.00064h156.031902c44.159972 0 82.431948 29.887981 93.119942 72.703955l7.039996 28.159982c31.35998 13.631991 61.183962 30.783981 88.703944 51.263968l27.967983-7.999995a95.99994 95.99994 0 0 1 109.567931 44.287972l78.015952 135.167916a95.87194 95.87194 0 0 1-16.38399 116.991927l-20.927987 20.223987a455.935715 455.935715 0 0 1 0 102.399936l20.927987 20.223987c31.67998 30.655981 38.399976 78.783951 16.38399 116.991927l-78.079952 135.167916a95.87194 95.87194 0 0 1-109.503931 44.287972l-27.967983-7.999995c-27.519983 20.479987-57.279964 37.631976-88.703944 51.327968l-7.039996 28.031982A95.87194 95.87194 0 0 1 590.015951 1024" p-id="1291">
	</path>
</svg>
